<?xml version="1.0" encoding="utf-8"?>
<!-- Generator: Adobe Illustrator 18.1.0, SVG Export Plug-In . SVG Version: 6.00 Build 0)  -->

<svg
   version="1.1"
   id="Layer_1"
   xmlns="http://www.w3.org/2000/svg"
   xmlns:xlink="http://www.w3.org/1999/xlink"
   x="0px"
   y="0px"
   viewBox="0 0 16 16"
   enable-background="new 0 0 16 16"
   xml:space="preserve"
   width="16"
   height="16">

<g>
	<g>
		<path fill="#FFFFFF" d="M10.3,0.1H6.1c-0.6,0-1.2,0.1-1.8,0.2C3.6,0.5,3,0.8,2.4,1.3C1.5,2.1,1.1,3.1,1.1,4.1
			c0,0.8,0.3,1.6,0.9,2.2c0.6,0.7,1.5,1,2.6,1c0.2,0,0.4,0,0.7,0c0,0.1-0.1,0.2-0.1,0.4C5.1,7.8,5.1,7.9,5.1,8.1
			c0,0.3,0.1,0.6,0.2,0.8c0.1,0.2,0.3,0.4,0.4,0.6c-0.5,0-1.1,0.1-1.9,0.2C3,9.9,2.3,10.1,1.6,10.5c-0.6,0.4-1,0.8-1.3,1.2
			C0.1,12.2,0,12.6,0,13c0,0.8,0.4,1.5,1.1,2C1.8,15.7,3,16,4.5,16c1.8,0,3.1-0.4,4.1-1.2c0.9-0.8,1.4-1.7,1.4-2.7
			c0-0.7-0.2-1.3-0.5-1.7C9.1,9.9,8.7,9.5,8.2,9.2L7.5,8.6C7.4,8.5,7.3,8.4,7.2,8.2C7.1,8.1,7,7.9,7,7.7c0-0.2,0.1-0.4,0.2-0.6
			c0.1-0.2,0.2-0.3,0.4-0.4C7.8,6.5,8,6.3,8.2,6.1c0.2-0.2,0.3-0.4,0.5-0.6c0.3-0.4,0.5-1,0.5-1.8c0-0.4,0-0.8-0.1-1.1
			C8.9,2.3,8.8,2.1,8.6,1.9C8.5,1.6,8.3,1.4,8.2,1.3C8,1.1,7.8,1,7.7,0.9H9L10.3,0.1z M8,11.5c0.4,0.4,0.5,0.9,0.5,1.4
			c0,0.7-0.3,1.2-0.8,1.6c-0.5,0.4-1.3,0.6-2.3,0.7c-1.1,0-2-0.3-2.6-0.7c-0.7-0.5-1-1.1-1-1.8c0-0.4,0.1-0.7,0.2-1
			c0.1-0.3,0.3-0.5,0.5-0.6c0.2-0.2,0.4-0.3,0.6-0.4c0.2-0.1,0.3-0.1,0.5-0.2c0.5-0.1,0.9-0.2,1.4-0.3c0.4,0,0.7-0.1,0.8,0
			c0.2,0,0.3,0,0.5,0C7.1,10.7,7.6,11.1,8,11.5z M7.3,5.4C7.3,5.7,7.2,5.9,7,6.2C6.6,6.6,6.1,6.8,5.6,6.8c-0.4,0-0.8-0.1-1.2-0.4
			C4,6.1,3.8,5.8,3.5,5.4C3.1,4.6,2.9,3.8,2.9,3.1C2.9,2.5,3,2,3.3,1.5c0.4-0.4,0.9-0.7,1.4-0.7c0.4,0,0.8,0.1,1.2,0.4
			c0.3,0.3,0.6,0.6,0.8,1C7.2,3,7.4,3.9,7.4,4.7C7.4,4.9,7.3,5.1,7.3,5.4z M14,7V5h-1v2h-2v1h2v2h1V8h2V7H14z"/>
	</g>
</g>
</svg>
