<svg xmlns="http://www.w3.org/2000/svg"
  height="16"
  viewBox="0 0 16 16"
  width="16">
  <path
     style="fill:#ffffff;stroke-width:0.03175605"
     d="m 8.0000159,1.44147 c 2.1361021,0 2.3891031,0.008 3.2327661,0.0466 0.779992,0.0356 1.203554,0.16589 1.485484,0.27545 a 2.4786232,2.4786232 0 0 1 0.919846,0.59845 2.4786232,2.4786232 0 0 1 0.598443,0.91984 c 0.109558,0.2819 0.239885,0.70549 0.275452,1.48549 0.03849,0.84359 0.04665,1.0966 0.04665,3.23276 0,2.13617 -0.0082,2.3891 -0.04665,3.23277 -0.0356,0.77999 -0.165926,1.20355 -0.275452,1.48548 a 2.649312,2.649312 0 0 1 -1.518289,1.51829 c -0.281898,0.10956 -0.705492,0.23989 -1.485484,0.27545 -0.843441,0.0385 -1.096441,0.0466 -3.2327661,0.0466 -2.1363248,0 -2.38923,-0.008 -3.2327659,-0.0466 C 3.9872579,14.47645 3.5636957,14.34613 3.2817655,14.2366 A 2.4785915,2.4785915 0 0 1 2.3619197,13.63821 2.478655,2.478655 0 0 1 1.763477,12.71836 C 1.6539186,12.43646 1.5235918,12.01287 1.488025,11.23288 1.449537,10.38931 1.441375,10.13628 1.441375,8.00011 c 0,-2.13616 0.00816,-2.3891 0.04665,-3.23276 0.035599,-0.78 0.1658936,-1.20356 0.275452,-1.48549 A 2.4786232,2.4786232 0 0 1 2.3619832,2.36198 2.478655,2.478655 0 0 1 3.281829,1.76354 C 3.5637274,1.65398 3.9873214,1.52366 4.7673135,1.48809 5.610913,1.44959 5.8639134,1.44149 8.0000794,1.44149 m 0,-1.44144 C 5.827394,5e-5 5.5548635,0.00905 4.7017055,0.04815 3.850167,0.08705 3.2686502,0.22224 2.7597913,0.42002 A 3.9214911,3.9214911 0 0 0 1.3428363,1.34275 3.9214911,3.9214911 0 0 0 0.41984674,2.75971 C 0.22222884,3.2686 0.08701158,3.85011 0.04830095,4.70165 0.00920925,5.5548 0,5.82733 0,8.00002 c 0,2.17268 0.00920925,2.44521 0.04830095,3.29837 0.03886941,0.85154 0.17408667,1.43306 0.37186335,1.94191 a 3.9215229,3.9215229 0 0 0 0.9227355,1.41696 3.9214276,3.9214276 0 0 0 1.416955,0.92273 c 0.5088907,0.19778 1.0904075,0.333 1.9419142,0.37187 0.8532851,0.0389 1.1257202,0.0481 3.2983739,0.0481 2.1726541,0 2.4452161,-0.009 3.2983741,-0.0481 0.851538,-0.0389 1.433055,-0.17409 1.941914,-0.37187 a 4.0907191,4.0907191 0 0 0 2.339691,-2.33969 c 0.197776,-0.50889 0.332993,-1.0904 0.371863,-1.94191 0.03893,-0.85329 0.04814,-1.12572 0.04814,-3.29837 0,-2.17266 -0.0092,-2.44522 -0.04814,-3.29838 C 15.913115,3.8501 15.777898,3.26859 15.580122,2.75973 A 3.9214276,3.9214276 0 0 0 14.657386,1.34277 3.9214593,3.9214593 0 0 0 13.240336,0.41985 C 12.731445,0.22223 12.149928,0.08701 11.29839,0.0483 10.445232,0.0092 10.172701,0 8.0000159,0 v 0 z"/>
  <path
     style="fill:#ffffff;stroke-width:0.03175605"
     d="M 8.0000159,3.89189 A 4.1081214,4.1081214 0 1 0 12.108137,8.00002 4.1081214,4.1081214 0 0 0 8.0000159,3.89189 Z m 0,6.77478 A 2.6666508,2.6666508 0 1 1 10.666698,8.00002 2.6666825,2.6666825 0 0 1 8.0000159,10.66667 Z"/>
  <circle
     style="fill:#ffffff;stroke-width:0.03175605"
     cx="12.270443"
     cy="3.7295871"
     r="0.95998538"/>
</svg>
