<?xml version="1.0" encoding="UTF-8" standalone="no"?>
<!-- Generator: Adobe Illustrator 15.0.2, SVG Export Plug-In . SVG Version: 6.00 Build 0)  -->

<svg
   xmlns:dc="http://purl.org/dc/elements/1.1/"
   xmlns:cc="http://creativecommons.org/ns#"
   xmlns:rdf="http://www.w3.org/1999/02/22-rdf-syntax-ns#"
   xmlns:svg="http://www.w3.org/2000/svg"
   xmlns="http://www.w3.org/2000/svg"
   xmlns:sodipodi="http://sodipodi.sourceforge.net/DTD/sodipodi-0.dtd"
   xmlns:inkscape="http://www.inkscape.org/namespaces/inkscape"
   version="1.1"
   id="Layer_1"
   x="0px"
   y="0px"
   width="14.457837"
   height="16"
   viewBox="0 0 14.458 16"
   enable-background="new 0 0 14.458 16"
   xml:space="preserve"
   inkscape:version="0.91 r13725"
   sodipodi:docname="share.svg">
   <metadata id="metadata9">
     <rdf:RDF><cc:Work rdf:about="">
       <dc:format>image/svg+xml</dc:format>
       <dc:type rdf:resource="http://purl.org/dc/dcmitype/StillImage" />
       <dc:title></dc:title>
     </cc:Work></rdf:RDF>
   </metadata>
   <defs id="defs7" /><sodipodi:namedview
     pagecolor="#ffffff"
     bordercolor="#666666"
     borderopacity="1"
     objecttolerance="10"
     gridtolerance="10"
     guidetolerance="10"
     inkscape:pageopacity="0"
     inkscape:pageshadow="2"
     inkscape:window-width="1920"
     inkscape:window-height="1018"
     id="namedview5"
     showgrid="false"
     fit-margin-top="0"
     fit-margin-left="0"
     fit-margin-right="0"
     fit-margin-bottom="0"
     inkscape:zoom="3.3320919"
     inkscape:cx="179.41437"
     inkscape:cy="43.229198"
     inkscape:window-x="-8"
     inkscape:window-y="-8"
     inkscape:window-maximized="1"
     inkscape:current-layer="Layer_1" />
  <path
    d="m 12.048231,11.31715 c -0.610252,0 -1.160894,0.23692 -1.578223,0.6185 L 4.7469238,8.59848 c 0.044306,-0.18078 0.072346,-0.36964 0.072346,-0.56242 0,-0.19275 -0.02804,-0.38161 -0.072346,-0.56219 L 10.409607,4.16864 c 0.429867,0.40163 1.004031,0.65066 1.638595,0.65066 1.329531,0 2.409635,-1.08053 2.409635,-2.40967 C 14.457865,1.0803 13.377761,0 12.048231,0 10.718672,0 9.6385675,1.0803 9.6385675,2.40963 c 0,0.19256 0.028238,0.38142 0.072176,0.56222 L 4.0482301,6.27709 C 3.6183632,5.87546 3.0441996,5.62643 2.4096348,5.62643 1.0803019,5.62643 0,6.70673 0,8.03606 c 0,1.32956 1.0803019,2.40966 2.4096348,2.40966 0.634593,0 1.2087566,-0.24903 1.6385957,-0.65066 l 5.7228862,3.3372 c -0.039985,0.16864 -0.064298,0.34552 -0.064298,0.52633 0,1.29307 1.0479413,2.34141 2.3414123,2.34141 1.29347,0 2.341383,-1.04834 2.341383,-2.34141 0,-1.29308 -1.047913,-2.34144 -2.341383,-2.34144 z"
    id="path3"
    inkscape:connector-curvature="0"
    style="fill:#ffffff" />
</svg>
