<?xml version="1.0" encoding="UTF-8" standalone="no"?>
<!-- Generator: Adobe Illustrator 18.1.0, SVG Export Plug-In . SVG Version: 6.00 Build 0)  -->

<svg
   xmlns:dc="http://purl.org/dc/elements/1.1/"
   xmlns:cc="http://creativecommons.org/ns#"
   xmlns:rdf="http://www.w3.org/1999/02/22-rdf-syntax-ns#"
   xmlns:svg="http://www.w3.org/2000/svg"
   xmlns="http://www.w3.org/2000/svg"
   xmlns:sodipodi="http://sodipodi.sourceforge.net/DTD/sodipodi-0.dtd"
   xmlns:inkscape="http://www.inkscape.org/namespaces/inkscape"
   version="1.1"
   id="Layer_1"
   x="0px"
   y="0px"
   viewBox="0 0 9.2719193 16"
   enable-background="new 0 0 11 16"
   xml:space="preserve"
   inkscape:version="0.91 r13725"
   sodipodi:docname="ok.svg"
   width="9.2719193"
   height="16">

<metadata
   id="metadata15"><rdf:RDF><cc:Work
       rdf:about=""><dc:format>image/svg+xml</dc:format><dc:type
         rdf:resource="http://purl.org/dc/dcmitype/StillImage" /><dc:title></dc:title></cc:Work></rdf:RDF></metadata><defs
   id="defs13" /><sodipodi:namedview
   pagecolor="#ffffff"
   bordercolor="#666666"
   borderopacity="1"
   objecttolerance="10"
   gridtolerance="10"
   guidetolerance="10"
   inkscape:pageopacity="0"
   inkscape:pageshadow="2"
   inkscape:window-width="1280"
   inkscape:window-height="961"
   id="namedview11"
   showgrid="false"
   fit-margin-top="0"
   fit-margin-left="0"
   fit-margin-right="0"
   fit-margin-bottom="0"
   inkscape:zoom="41.7193"
   inkscape:cx="4.6081037"
   inkscape:cy="8"
   inkscape:window-x="-8"
   inkscape:window-y="-8"
   inkscape:window-maximized="1"
   inkscape:current-layer="Layer_1" />
<g
   id="g3"
   transform="translate(-0.89189633,0)">
	<g
   id="g5">
		<path
   d="M 5.5,8.3 C 7.8,8.3 9.6,6.4 9.6,4.2 9.6,1.9 7.8,0 5.5,0 3.2,0 1.4,1.9 1.4,4.1 c 0,2.3 1.8,4.2 4.1,4.2 z m 0,-5.9 C 6.4,2.4 7.2,3.2 7.2,4.1 7.2,5 6.4,5.8 5.5,5.8 4.6,5.8 3.8,5 3.8,4.1 3.8,3.2 4.6,2.4 5.5,2.4 Z"
   id="path7"
   inkscape:connector-curvature="0"
   style="fill:#ffffff" />
		<path
   d="M 7.2,11.6 C 8,11.4 8.9,11.1 9.6,10.6 10.2,10.2 10.3,9.5 10,8.9 9.6,8.4 8.8,8.2 8.3,8.6 6.6,9.7 4.4,9.7 2.7,8.6 2.2,8.2 1.4,8.4 1.1,9 c -0.4,0.6 -0.2,1.3 0.4,1.7 0.7,0.5 1.6,0.8 2.4,1 L 1.6,14 c -0.5,0.5 -0.5,1.2 0,1.7 0.2,0.2 0.5,0.3 0.8,0.3 0.3,0 0.6,-0.1 0.9,-0.4 l 2.3,-2.3 2.3,2.3 c 0.5,0.5 1.2,0.5 1.7,0 0.5,-0.5 0.5,-1.2 0,-1.7 L 7.2,11.6 Z"
   id="path9"
   inkscape:connector-curvature="0"
   style="fill:#ffffff" />
	</g>
</g>
</svg>
