<?xml version="1.0" encoding="utf-8"?>
<!-- Generator: Adobe Illustrator 18.1.0, SVG Export Plug-In . SVG Version: 6.00 Build 0)  -->

<svg
   version="1.1"
   id="Layer_1"
   xmlns="http://www.w3.org/2000/svg"
   xmlns:xlink="http://www.w3.org/1999/xlink"
   x="0px"
   y="0px"
   viewBox="0 0 20 16"
   enable-background="new 0 0 20 16"
   xml:space="preserve"
   width="20"
   height="16">

<path fill="#FFFFFF" d="M20,1.9c-0.7,0.3-1.5,0.5-2.3,0.6c0.8-0.5,1.5-1.3,1.8-2.2c-0.8,0.5-1.6,0.8-2.6,1c-0.7-0.8-1.8-1.3-2.9-1.3
	c-2.2,0-4,1.8-4,4c0,0.3,0,0.6,0.1,0.9C6.7,4.8,3.7,3.2,1.7,0.8c-0.3,0.6-0.5,1.3-0.5,2c0,1.4,0.7,2.6,1.8,3.4
	C2.3,6.1,1.7,6,1.2,5.7c0,0,0,0,0,0.1c0,2,1.4,3.6,3.2,3.9C4.1,9.8,3.7,9.8,3.3,9.8c-0.3,0-0.5,0-0.8-0.1c0.5,1.6,2,2.8,3.8,2.8
	c-1.4,1.1-3.1,1.7-5,1.7c-0.3,0-0.6,0-1-0.1C2.2,15.3,4.3,16,6.5,16C14,16,18,9.9,18,4.5c0-0.2,0-0.3,0-0.5
	C18.8,3.5,19.5,2.7,20,1.9z"/>
</svg>
