<?xml version="1.0" encoding="UTF-8" standalone="no"?>
<!-- Generator: Adobe Illustrator 16.0.0, SVG Export Plug-In . SVG Version: 6.00 Build 0)  -->

<svg
  xmlns:dc="http://purl.org/dc/elements/1.1/"
  xmlns:cc="http://creativecommons.org/ns#"
  xmlns:rdf="http://www.w3.org/1999/02/22-rdf-syntax-ns#"
  xmlns:svg="http://www.w3.org/2000/svg"
  xmlns="http://www.w3.org/2000/svg"
  xmlns:sodipodi="http://sodipodi.sourceforge.net/DTD/sodipodi-0.dtd"
  xmlns:inkscape="http://www.inkscape.org/namespaces/inkscape"
  version="1.1"
  id="Layer_1"
  x="0px"
  y="0px"
  width="17.245615"
  height="16"
  viewBox="0 0 17.245615 16"
  enable-background="new 0 0 512 512"
  xml:space="preserve"
  inkscape:version="0.91 r13725"
  sodipodi:docname="user.svg">
  <metadata id="metadata15"><rdf:RDF><cc:Work rdf:about="">
    <dc:format>image/svg+xml</dc:format>
    <dc:type rdf:resource="http://purl.org/dc/dcmitype/StillImage" />
    <dc:title></dc:title>
  </cc:Work></rdf:RDF></metadata>
  <defs id="defs13" /><sodipodi:namedview
    pagecolor="#ffffff"
    bordercolor="#666666"
    borderopacity="1"
    objecttolerance="10"
    gridtolerance="10"
    guidetolerance="10"
    inkscape:pageopacity="0"
    inkscape:pageshadow="2"
    inkscape:window-width="1920"
    inkscape:window-height="1018"
    id="namedview11"
    showgrid="false"
    fit-margin-top="0"
    fit-margin-left="0"
    fit-margin-right="0"
    fit-margin-bottom="0"
    inkscape:zoom="1.3037281"
    inkscape:cx="206.0007"
    inkscape:cy="189.3295"
    inkscape:window-x="-8"
    inkscape:window-y="-8"
    inkscape:window-maximized="1"
    inkscape:current-layer="Layer_1" />
  <path
    d="m 16.928612,13.70127 c -0.227667,-0.68313 -0.640348,-1.3722 -1.24901,-1.7732 C 14.508449,11.15067 13.14391,10.73598 11.824495,10.29203 11.506204,10.18052 11.182807,10.05897 10.891933,9.88601 10.632245,9.73172 10.534757,9.41527 10.474439,9.13733 10.447819,8.99033 10.431489,8.83947 10.423039,8.69108 11.379794,7.3823 12.014449,5.24635 12.014449,3.49496 12.014449,0.7617 10.470046,0 8.5652415,0 6.660061,0 5.1159921,0.76057 5.1159921,3.49383 c 0,1.81405 0.6804066,4.03932 1.6948007,5.33203 -0.00925,0.10205 -0.02139,0.20411 -0.039765,0.3057 C 6.7105848,9.40945 6.613222,9.72 6.3537005,9.87425 6.0624923,10.04725 5.739137,10.15704 5.4208046,10.26855 4.1013894,10.71246 2.7368925,11.10392 1.5660322,11.88131 0.95703576,12.28231 0.54456408,13.01814 0.31706422,13.70127 0.08278332,14.41026 -0.01303032,15.28841 0.00141079,16 l 8.62105141,0 8.6217218,0 c 0.01457,-0.71155 -0.08146,-1.58969 -0.31557,-2.29873 z"
    id="path9"
    inkscape:connector-curvature="0"
    style="fill:#ffffff" />
</svg>
