<?xml version="1.0" encoding="utf-8"?>
<!-- Generator: Adobe Illustrator 18.1.0, SVG Export Plug-In . SVG Version: 6.00 Build 0)  -->

<svg
   version="1.1"
   id="Layer_1"
   xmlns="http://www.w3.org/2000/svg"
   xmlns:xlink="http://www.w3.org/1999/xlink"
   x="0px"
   y="0px"
   viewBox="0 0 28 16"
   enable-background="new 0 0 28 16"
   xml:space="preserve"
   width="28"
   height="16">

<path fill-rule="evenodd" clip-rule="evenodd" fill="#FFFFFF" d="M0.1,1.7c0,0,3.1,7.3,6.7,11c3.3,3.4,7,3.2,7,3.2l0,0h1.7
	c0,0,0.5-0.1,0.8-0.3c0.2-0.3,0.2-0.7,0.2-0.7s0-2.2,1-2.6c1-0.3,2.4,2.2,3.8,3.1C22.2,16.1,23,16,23,16l3.7-0.1c0,0,2-0.1,1-1.7
	c-0.1-0.1-0.5-1.1-2.8-3.2c-2.3-2.2-2-1.8,0.8-5.6c1.7-2.3,2.4-3.7,2.2-4.3c-0.2-0.6-1.5-0.4-1.5-0.4l-4.2,0c0,0-0.3,0-0.5,0.1
	c-0.2,0.1-0.4,0.5-0.4,0.5s-0.7,1.8-1.6,3.3C18,7.8,17.2,8,16.9,7.8c-0.7-0.5-0.5-1.9-0.5-2.8c0-3.1,0.5-4.4-0.9-4.7
	C15,0.1,14.7,0,13.5,0C12,0,10.7,0,10,0.4C9.5,0.6,9.1,1.1,9.4,1.2c0.3,0,0.9,0.2,1.2,0.6C11,2.4,11,3.7,11,3.7s0.2,3.6-0.6,4.1
	c-0.6,0.3-1.3-0.3-3-3.2C6.6,3.1,5.9,1.4,5.9,1.4S5.8,1.1,5.6,1C5.3,0.8,4.9,0.7,4.9,0.7l-4,0c0,0-0.6,0-0.8,0.3"/>
</svg>
