<?xml version="1.0" encoding="utf-8"?>
<!-- Generator: Adobe Illustrator 18.1.0, SVG Export Plug-In . SVG Version: 6.00 Build 0)  -->

<svg
   version="1.1"
   id="Layer_1"
   xmlns="http://www.w3.org/2000/svg"
   xmlns:xlink="http://www.w3.org/1999/xlink"
   x="0px"
   y="0px"
   viewBox="0 0 23 16"
   enable-background="new 0 0 23 16"
   xml:space="preserve"
   width="23"
   height="16">

<path fill="#FFFFFF" d="M22.8,3.4c0,0-0.2-1.6-0.9-2.3c-0.9-0.9-1.9-0.9-2.3-1c-3.2-0.2-8-0.2-8-0.2h0c0,0-4.8,0-8,0.2
	C3,0.3,2,0.3,1.1,1.2C0.5,1.9,0.2,3.4,0.2,3.4S0,5.3,0,7.1v1.7c0,1.8,0.2,3.7,0.2,3.7s0.2,1.6,0.9,2.3c0.9,0.9,2,0.9,2.5,1
	c1.8,0.2,7.8,0.2,7.8,0.2s4.8,0,8.1-0.2c0.4-0.1,1.4-0.1,2.3-1c0.7-0.7,0.9-2.3,0.9-2.3S23,10.7,23,8.8V7.1
	C23,5.3,22.8,3.4,22.8,3.4z M9,11V5l6,3L9,11z"/>
</svg>
